<mxfile host="app.diagrams.net" modified="2023-10-23T08:40:21.905Z" agent="Mozilla/5.0 (Windows NT 10.0; Win64; x64) AppleWebKit/537.36 (KHTML, like Gecko) Chrome/118.0.0.0 Safari/537.36" etag="FAYa9rjagJzk5l-s4o2t" version="22.0.6" type="device" pages="2">
  <diagram name="Luas dan Keliling Lingkaran" id="8aOz2J1WPEZZ92Z6UNZS">
    <mxGraphModel dx="1257" dy="669" grid="1" gridSize="10" guides="1" tooltips="1" connect="1" arrows="1" fold="1" page="1" pageScale="1" pageWidth="850" pageHeight="1100" math="0" shadow="0">
      <root>
        <mxCell id="0" />
        <mxCell id="1" parent="0" />
        <mxCell id="tpCFE3qdXr_N5tP-cuVP-1" value="Luas dan Keliling Lingkaran" style="text;html=1;strokeColor=none;fillColor=none;align=center;verticalAlign=middle;whiteSpace=wrap;rounded=0;fontSize=17;" vertex="1" parent="1">
          <mxGeometry x="295" y="40" width="260" height="30" as="geometry" />
        </mxCell>
        <mxCell id="tpCFE3qdXr_N5tP-cuVP-5" style="edgeStyle=orthogonalEdgeStyle;rounded=0;orthogonalLoop=1;jettySize=auto;html=1;" edge="1" parent="1" source="tpCFE3qdXr_N5tP-cuVP-2" target="tpCFE3qdXr_N5tP-cuVP-4">
          <mxGeometry relative="1" as="geometry" />
        </mxCell>
        <mxCell id="tpCFE3qdXr_N5tP-cuVP-2" value="Mulai" style="ellipse;whiteSpace=wrap;html=1;" vertex="1" parent="1">
          <mxGeometry x="180" y="140" width="120" height="80" as="geometry" />
        </mxCell>
        <mxCell id="tpCFE3qdXr_N5tP-cuVP-3" value="Selesai" style="ellipse;whiteSpace=wrap;html=1;" vertex="1" parent="1">
          <mxGeometry x="180" y="990" width="120" height="80" as="geometry" />
        </mxCell>
        <mxCell id="tpCFE3qdXr_N5tP-cuVP-7" style="edgeStyle=orthogonalEdgeStyle;rounded=0;orthogonalLoop=1;jettySize=auto;html=1;exitX=0.5;exitY=1;exitDx=0;exitDy=0;entryX=0.5;entryY=0;entryDx=0;entryDy=0;" edge="1" parent="1" source="tpCFE3qdXr_N5tP-cuVP-4" target="tpCFE3qdXr_N5tP-cuVP-6">
          <mxGeometry relative="1" as="geometry" />
        </mxCell>
        <mxCell id="tpCFE3qdXr_N5tP-cuVP-4" value="Input r" style="shape=parallelogram;perimeter=parallelogramPerimeter;whiteSpace=wrap;html=1;fixedSize=1;" vertex="1" parent="1">
          <mxGeometry x="180" y="290" width="120" height="60" as="geometry" />
        </mxCell>
        <mxCell id="tpCFE3qdXr_N5tP-cuVP-8" style="edgeStyle=orthogonalEdgeStyle;rounded=0;orthogonalLoop=1;jettySize=auto;html=1;entryX=1;entryY=0.5;entryDx=0;entryDy=0;" edge="1" parent="1" source="tpCFE3qdXr_N5tP-cuVP-6" target="tpCFE3qdXr_N5tP-cuVP-4">
          <mxGeometry relative="1" as="geometry">
            <Array as="points">
              <mxPoint x="400" y="460" />
              <mxPoint x="400" y="320" />
            </Array>
          </mxGeometry>
        </mxCell>
        <mxCell id="tpCFE3qdXr_N5tP-cuVP-12" style="edgeStyle=orthogonalEdgeStyle;rounded=0;orthogonalLoop=1;jettySize=auto;html=1;exitX=0.5;exitY=1;exitDx=0;exitDy=0;entryX=0.5;entryY=0;entryDx=0;entryDy=0;" edge="1" parent="1" source="tpCFE3qdXr_N5tP-cuVP-6" target="tpCFE3qdXr_N5tP-cuVP-11">
          <mxGeometry relative="1" as="geometry" />
        </mxCell>
        <mxCell id="tpCFE3qdXr_N5tP-cuVP-6" value="r == num" style="rhombus;whiteSpace=wrap;html=1;" vertex="1" parent="1">
          <mxGeometry x="200" y="420" width="80" height="80" as="geometry" />
        </mxCell>
        <mxCell id="tpCFE3qdXr_N5tP-cuVP-9" value="ya" style="text;html=1;strokeColor=none;fillColor=none;align=center;verticalAlign=middle;whiteSpace=wrap;rounded=0;" vertex="1" parent="1">
          <mxGeometry x="240" y="370" width="60" height="30" as="geometry" />
        </mxCell>
        <mxCell id="tpCFE3qdXr_N5tP-cuVP-10" value="tidak" style="text;html=1;strokeColor=none;fillColor=none;align=center;verticalAlign=middle;whiteSpace=wrap;rounded=0;" vertex="1" parent="1">
          <mxGeometry x="410" y="380" width="60" height="30" as="geometry" />
        </mxCell>
        <mxCell id="tpCFE3qdXr_N5tP-cuVP-15" style="edgeStyle=orthogonalEdgeStyle;rounded=0;orthogonalLoop=1;jettySize=auto;html=1;entryX=1;entryY=0.5;entryDx=0;entryDy=0;" edge="1" parent="1" source="tpCFE3qdXr_N5tP-cuVP-11" target="tpCFE3qdXr_N5tP-cuVP-13">
          <mxGeometry relative="1" as="geometry" />
        </mxCell>
        <mxCell id="tpCFE3qdXr_N5tP-cuVP-18" style="edgeStyle=orthogonalEdgeStyle;rounded=0;orthogonalLoop=1;jettySize=auto;html=1;exitX=1;exitY=0.5;exitDx=0;exitDy=0;entryX=0;entryY=0.5;entryDx=0;entryDy=0;" edge="1" parent="1" source="tpCFE3qdXr_N5tP-cuVP-11" target="tpCFE3qdXr_N5tP-cuVP-21">
          <mxGeometry relative="1" as="geometry">
            <mxPoint x="390" y="600" as="targetPoint" />
          </mxGeometry>
        </mxCell>
        <mxCell id="tpCFE3qdXr_N5tP-cuVP-23" style="edgeStyle=orthogonalEdgeStyle;rounded=0;orthogonalLoop=1;jettySize=auto;html=1;entryX=0.5;entryY=0;entryDx=0;entryDy=0;" edge="1" parent="1" source="tpCFE3qdXr_N5tP-cuVP-11" target="tpCFE3qdXr_N5tP-cuVP-22">
          <mxGeometry relative="1" as="geometry" />
        </mxCell>
        <mxCell id="tpCFE3qdXr_N5tP-cuVP-11" value="r % 7" style="rhombus;whiteSpace=wrap;html=1;" vertex="1" parent="1">
          <mxGeometry x="200" y="560" width="80" height="80" as="geometry" />
        </mxCell>
        <mxCell id="tpCFE3qdXr_N5tP-cuVP-13" value="Luas&lt;br&gt;Keliling" style="shape=process;whiteSpace=wrap;html=1;backgroundOutline=1;" vertex="1" parent="1">
          <mxGeometry x="30" y="645" width="120" height="60" as="geometry" />
        </mxCell>
        <mxCell id="tpCFE3qdXr_N5tP-cuVP-27" style="edgeStyle=orthogonalEdgeStyle;rounded=0;orthogonalLoop=1;jettySize=auto;html=1;entryX=1;entryY=0.5;entryDx=0;entryDy=0;" edge="1" parent="1" source="tpCFE3qdXr_N5tP-cuVP-21" target="tpCFE3qdXr_N5tP-cuVP-26">
          <mxGeometry relative="1" as="geometry">
            <Array as="points">
              <mxPoint x="510" y="600" />
              <mxPoint x="510" y="900" />
            </Array>
          </mxGeometry>
        </mxCell>
        <mxCell id="tpCFE3qdXr_N5tP-cuVP-21" value="" style="rounded=0;whiteSpace=wrap;html=1;" vertex="1" parent="1">
          <mxGeometry x="370" y="570" width="120" height="60" as="geometry" />
        </mxCell>
        <mxCell id="tpCFE3qdXr_N5tP-cuVP-28" style="edgeStyle=orthogonalEdgeStyle;rounded=0;orthogonalLoop=1;jettySize=auto;html=1;exitX=0.5;exitY=1;exitDx=0;exitDy=0;" edge="1" parent="1" source="tpCFE3qdXr_N5tP-cuVP-22" target="tpCFE3qdXr_N5tP-cuVP-26">
          <mxGeometry relative="1" as="geometry" />
        </mxCell>
        <mxCell id="tpCFE3qdXr_N5tP-cuVP-22" value="" style="rounded=0;whiteSpace=wrap;html=1;" vertex="1" parent="1">
          <mxGeometry x="180" y="720" width="120" height="60" as="geometry" />
        </mxCell>
        <mxCell id="tpCFE3qdXr_N5tP-cuVP-24" value="ya" style="text;html=1;strokeColor=none;fillColor=none;align=center;verticalAlign=middle;whiteSpace=wrap;rounded=0;" vertex="1" parent="1">
          <mxGeometry x="240" y="660" width="60" height="30" as="geometry" />
        </mxCell>
        <mxCell id="tpCFE3qdXr_N5tP-cuVP-25" value="tidak" style="text;html=1;strokeColor=none;fillColor=none;align=center;verticalAlign=middle;whiteSpace=wrap;rounded=0;" vertex="1" parent="1">
          <mxGeometry x="290" y="570" width="60" height="30" as="geometry" />
        </mxCell>
        <mxCell id="tpCFE3qdXr_N5tP-cuVP-31" style="edgeStyle=orthogonalEdgeStyle;rounded=0;orthogonalLoop=1;jettySize=auto;html=1;entryX=0.5;entryY=0;entryDx=0;entryDy=0;" edge="1" parent="1" source="tpCFE3qdXr_N5tP-cuVP-26" target="tpCFE3qdXr_N5tP-cuVP-3">
          <mxGeometry relative="1" as="geometry" />
        </mxCell>
        <mxCell id="tpCFE3qdXr_N5tP-cuVP-26" value="Tampilkan Luas &amp;amp; Keliling" style="shape=parallelogram;perimeter=parallelogramPerimeter;whiteSpace=wrap;html=1;fixedSize=1;" vertex="1" parent="1">
          <mxGeometry x="175" y="870" width="130" height="60" as="geometry" />
        </mxCell>
        <mxCell id="tpCFE3qdXr_N5tP-cuVP-29" value="Luas = 3.14* r * r&lt;br&gt;Keliling = 2 * 3.14 * r" style="text;html=1;strokeColor=none;fillColor=none;align=left;verticalAlign=middle;whiteSpace=wrap;rounded=0;" vertex="1" parent="1">
          <mxGeometry x="373" y="585" width="131" height="30" as="geometry" />
        </mxCell>
        <mxCell id="tpCFE3qdXr_N5tP-cuVP-30" value="Luas = 22/7* r * r&lt;br&gt;Keliling = 2 * 22/7* r" style="text;html=1;strokeColor=none;fillColor=none;align=left;verticalAlign=middle;whiteSpace=wrap;rounded=0;" vertex="1" parent="1">
          <mxGeometry x="185" y="734" width="110" height="30" as="geometry" />
        </mxCell>
        <mxCell id="tpCFE3qdXr_N5tP-cuVP-32" value="Flowchart" style="text;html=1;strokeColor=none;fillColor=none;align=center;verticalAlign=middle;whiteSpace=wrap;rounded=0;fontSize=17;" vertex="1" parent="1">
          <mxGeometry x="50" y="130" width="60" height="30" as="geometry" />
        </mxCell>
        <mxCell id="tpCFE3qdXr_N5tP-cuVP-33" value="Psudocode" style="text;html=1;strokeColor=none;fillColor=none;align=center;verticalAlign=middle;whiteSpace=wrap;rounded=0;fontSize=17;" vertex="1" parent="1">
          <mxGeometry x="600" y="130" width="60" height="30" as="geometry" />
        </mxCell>
        <mxCell id="tpCFE3qdXr_N5tP-cuVP-36" value="&lt;b style=&quot;font-weight:normal;&quot; id=&quot;docs-internal-guid-d74a9fb0-7fff-6e03-542d-ba2f8efc0322&quot;&gt;&lt;font style=&quot;font-size: 12px;&quot;&gt;&lt;p dir=&quot;ltr&quot; style=&quot;line-height: 1.38; margin-top: 0pt; margin-bottom: 0pt;&quot;&gt;&lt;span style=&quot;font-family: Roboto, sans-serif; color: rgb(89, 89, 89); background-color: rgb(255, 255, 255); font-weight: 400; font-style: normal; font-variant: normal; text-decoration: none; vertical-align: baseline;&quot;&gt;Hitung Luas dan Keliling Lingkaran;&lt;/span&gt;&lt;/p&gt;&lt;p dir=&quot;ltr&quot; style=&quot;line-height: 1.38; margin-top: 0pt; margin-bottom: 0pt;&quot;&gt;&lt;span style=&quot;font-family: Roboto, sans-serif; color: rgb(89, 89, 89); background-color: rgb(255, 255, 255); font-weight: 400; font-style: normal; font-variant: normal; text-decoration: none; vertical-align: baseline;&quot;&gt;Deklarasi:&lt;/span&gt;&lt;/p&gt;&lt;p dir=&quot;ltr&quot; style=&quot;line-height: 1.38; margin-top: 0pt; margin-bottom: 0pt;&quot;&gt;&lt;span style=&quot;font-family: Roboto, sans-serif; color: rgb(89, 89, 89); background-color: rgb(255, 255, 255); font-weight: 400; font-style: normal; font-variant: normal; text-decoration: none; vertical-align: baseline;&quot;&gt;&amp;nbsp;&amp;nbsp;&amp;nbsp;&amp;nbsp;&amp;nbsp;&amp;nbsp;r, luas, keliling : num;&lt;/span&gt;&lt;/p&gt;&lt;p dir=&quot;ltr&quot; style=&quot;line-height: 1.38; margin-top: 0pt; margin-bottom: 0pt;&quot;&gt;&lt;span style=&quot;font-family: Roboto, sans-serif; color: rgb(89, 89, 89); background-color: rgb(255, 255, 255); font-weight: 400; font-style: normal; font-variant: normal; text-decoration: none; vertical-align: baseline;&quot;&gt;Begin&lt;/span&gt;&lt;/p&gt;&lt;p dir=&quot;ltr&quot; style=&quot;line-height: 1.38; margin-top: 0pt; margin-bottom: 0pt;&quot;&gt;&lt;span style=&quot;font-family: Roboto, sans-serif; color: rgb(89, 89, 89); background-color: rgb(255, 255, 255); font-weight: 400; font-style: normal; font-variant: normal; text-decoration: none; vertical-align: baseline;&quot;&gt;Input(&#39;r&#39;);&lt;/span&gt;&lt;/p&gt;&lt;p dir=&quot;ltr&quot; style=&quot;line-height: 1.38; margin-top: 0pt; margin-bottom: 0pt;&quot;&gt;&lt;span style=&quot;font-family: Roboto, sans-serif; color: rgb(89, 89, 89); background-color: rgb(255, 255, 255); font-weight: 400; font-style: normal; font-variant: normal; text-decoration: none; vertical-align: baseline;&quot;&gt;IF (&#39;r&#39;) % 7 === 0;&lt;/span&gt;&lt;/p&gt;&lt;p dir=&quot;ltr&quot; style=&quot;line-height: 1.38; margin-top: 0pt; margin-bottom: 0pt;&quot;&gt;&lt;span style=&quot;font-family: Roboto, sans-serif; color: rgb(89, 89, 89); background-color: rgb(255, 255, 255); font-weight: 400; font-style: normal; font-variant: normal; text-decoration: none; vertical-align: baseline;&quot;&gt;&lt;span style=&quot;white-space: pre;&quot;&gt;&#x9;&lt;/span&gt;luas = 22/7 x r x r;&lt;br&gt;&lt;/span&gt;&lt;/p&gt;&lt;p dir=&quot;ltr&quot; style=&quot;line-height: 1.38; margin-top: 0pt; margin-bottom: 0pt;&quot;&gt;&lt;span style=&quot;font-family: Roboto, sans-serif; color: rgb(89, 89, 89); background-color: rgb(255, 255, 255); font-weight: 400; font-style: normal; font-variant: normal; text-decoration: none; vertical-align: baseline;&quot;&gt;&lt;span style=&quot;white-space: pre;&quot;&gt;&#x9;&lt;/span&gt;keliling = 2 x 22/7 x r;&lt;br&gt;&lt;/span&gt;&lt;/p&gt;&lt;p dir=&quot;ltr&quot; style=&quot;line-height: 1.38; margin-top: 0pt; margin-bottom: 0pt;&quot;&gt;&lt;span style=&quot;font-family: Roboto, sans-serif; color: rgb(89, 89, 89); background-color: rgb(255, 255, 255); font-weight: 400; font-style: normal; font-variant: normal; text-decoration: none; vertical-align: baseline;&quot;&gt;ELSE luas = 3,14 x r x r;&lt;/span&gt;&lt;/p&gt;&lt;p dir=&quot;ltr&quot; style=&quot;line-height: 1.38; margin-top: 0pt; margin-bottom: 0pt;&quot;&gt;&lt;span style=&quot;font-family: Roboto, sans-serif; color: rgb(89, 89, 89); background-color: rgb(255, 255, 255); font-weight: 400; font-style: normal; font-variant: normal; text-decoration: none; vertical-align: baseline;&quot;&gt;&lt;span style=&quot;white-space: pre;&quot;&gt;ELSE &lt;/span&gt;keliling = 2 x 3,14 x r;&lt;/span&gt;&lt;/p&gt;&lt;p dir=&quot;ltr&quot; style=&quot;line-height: 1.38; margin-top: 0pt; margin-bottom: 0pt;&quot;&gt;&lt;span style=&quot;font-family: Roboto, sans-serif; color: rgb(89, 89, 89); background-color: rgb(255, 255, 255); font-weight: 400; font-style: normal; font-variant: normal; text-decoration: none; vertical-align: baseline;&quot;&gt;&lt;span style=&quot;white-space: pre;&quot;&gt;&#x9;&lt;/span&gt;output(“Luas =”, luas);&lt;/span&gt;&lt;/p&gt;&lt;p dir=&quot;ltr&quot; style=&quot;line-height: 1.38; margin-top: 0pt; margin-bottom: 0pt;&quot;&gt;&lt;span style=&quot;font-family: Roboto, sans-serif; color: rgb(89, 89, 89); background-color: rgb(255, 255, 255); font-weight: 400; font-style: normal; font-variant: normal; text-decoration: none; vertical-align: baseline;&quot;&gt;&lt;span style=&quot;white-space: pre;&quot;&gt;&#x9;&lt;/span&gt;output(“Keliling = ”, keliling);&lt;/span&gt;&lt;/p&gt;&lt;p dir=&quot;ltr&quot; style=&quot;line-height: 1.38; margin-top: 0pt; margin-bottom: 0pt;&quot;&gt;&lt;span style=&quot;font-family: Roboto, sans-serif; color: rgb(89, 89, 89); background-color: rgb(255, 255, 255); font-weight: 400; font-style: normal; font-variant: normal; text-decoration: none; vertical-align: baseline;&quot;&gt;End&lt;/span&gt;&lt;/p&gt;&lt;/font&gt;&lt;/b&gt;" style="text;whiteSpace=wrap;html=1;" vertex="1" parent="1">
          <mxGeometry x="550" y="170" width="210" height="220" as="geometry" />
        </mxCell>
        <mxCell id="tpCFE3qdXr_N5tP-cuVP-37" value="Algoritma" style="text;html=1;strokeColor=none;fillColor=none;align=center;verticalAlign=middle;whiteSpace=wrap;rounded=0;fontSize=17;" vertex="1" parent="1">
          <mxGeometry x="600" y="460" width="60" height="30" as="geometry" />
        </mxCell>
        <mxCell id="tpCFE3qdXr_N5tP-cuVP-38" value="&lt;div style=&quot;border-color: var(--border-color);&quot;&gt;1. Mulai&lt;br style=&quot;border-color: var(--border-color);&quot;&gt;2. Masukkan nilai jari-jari (r) lingkaran.&lt;/div&gt;&lt;div style=&quot;border-color: var(--border-color);&quot;&gt;3. Cek jika nilai (r) bisa di bagi 7&lt;/div&gt;&lt;div style=&quot;border-color: var(--border-color);&quot;&gt;4. Jika &quot;YA&quot; maka hitung luas lingkaran (L) dengan rumus L = 22/7 * r * r.&lt;br&gt;keliling Lingkaran (K) dengan rumus K = 2 * 22/7 * r.&lt;br&gt;&lt;/div&gt;&lt;div style=&quot;border-color: var(--border-color);&quot;&gt;&lt;div style=&quot;border-color: var(--border-color);&quot;&gt;5. Jika &quot;TIDAK&quot; maka hitung luas lingkaran (L) dengan rumus L = 3.14* r * r.&lt;br&gt;keliling Lingkaran (K) dengan rumus K = 2 * 3.14 * r.&lt;br&gt;&lt;/div&gt;&lt;/div&gt;&lt;div style=&quot;border-color: var(--border-color);&quot;&gt;6. Tampilkan hasil luas Lingkaran (L), keliling Lingkaran (K).&lt;/div&gt;&lt;div style=&quot;border-color: var(--border-color);&quot;&gt;7. Selesai&lt;/div&gt;&lt;div style=&quot;border-color: var(--border-color);&quot;&gt;&lt;br style=&quot;border-color: var(--border-color); color: rgb(0, 0, 0); font-family: Helvetica; font-size: 12px; font-style: normal; font-variant-ligatures: normal; font-variant-caps: normal; font-weight: 400; letter-spacing: normal; orphans: 2; text-align: left; text-indent: 0px; text-transform: none; widows: 2; word-spacing: 0px; -webkit-text-stroke-width: 0px; background-color: rgb(251, 251, 251); text-decoration-thickness: initial; text-decoration-style: initial; text-decoration-color: initial;&quot;&gt;&lt;br&gt;&lt;br&gt;&lt;/div&gt;" style="text;whiteSpace=wrap;html=1;" vertex="1" parent="1">
          <mxGeometry x="550" y="500" width="290" height="170" as="geometry" />
        </mxCell>
      </root>
    </mxGraphModel>
  </diagram>
  <diagram id="EYsd0A6kNE9P2ZtOK80h" name="Luas sisi Dadu">
    <mxGraphModel dx="1257" dy="669" grid="1" gridSize="10" guides="1" tooltips="1" connect="1" arrows="1" fold="1" page="1" pageScale="1" pageWidth="850" pageHeight="1100" math="0" shadow="0">
      <root>
        <mxCell id="0" />
        <mxCell id="1" parent="0" />
        <mxCell id="-EwXRi98x3nagNaAKc7C-1" style="edgeStyle=orthogonalEdgeStyle;rounded=0;orthogonalLoop=1;jettySize=auto;html=1;" edge="1" parent="1" source="-EwXRi98x3nagNaAKc7C-2" target="-EwXRi98x3nagNaAKc7C-5">
          <mxGeometry relative="1" as="geometry" />
        </mxCell>
        <mxCell id="-EwXRi98x3nagNaAKc7C-2" value="Mulai" style="ellipse;whiteSpace=wrap;html=1;" vertex="1" parent="1">
          <mxGeometry x="180" y="140" width="120" height="80" as="geometry" />
        </mxCell>
        <mxCell id="-EwXRi98x3nagNaAKc7C-3" value="Selesai" style="ellipse;whiteSpace=wrap;html=1;" vertex="1" parent="1">
          <mxGeometry x="180" y="990" width="120" height="80" as="geometry" />
        </mxCell>
        <mxCell id="-EwXRi98x3nagNaAKc7C-4" style="edgeStyle=orthogonalEdgeStyle;rounded=0;orthogonalLoop=1;jettySize=auto;html=1;exitX=0.5;exitY=1;exitDx=0;exitDy=0;entryX=0.5;entryY=0;entryDx=0;entryDy=0;" edge="1" parent="1" source="-EwXRi98x3nagNaAKc7C-5" target="-EwXRi98x3nagNaAKc7C-8">
          <mxGeometry relative="1" as="geometry" />
        </mxCell>
        <mxCell id="-EwXRi98x3nagNaAKc7C-5" value="Input S" style="shape=parallelogram;perimeter=parallelogramPerimeter;whiteSpace=wrap;html=1;fixedSize=1;" vertex="1" parent="1">
          <mxGeometry x="180" y="290" width="120" height="60" as="geometry" />
        </mxCell>
        <mxCell id="-EwXRi98x3nagNaAKc7C-6" style="edgeStyle=orthogonalEdgeStyle;rounded=0;orthogonalLoop=1;jettySize=auto;html=1;entryX=1;entryY=0.5;entryDx=0;entryDy=0;" edge="1" parent="1" source="-EwXRi98x3nagNaAKc7C-8" target="-EwXRi98x3nagNaAKc7C-5">
          <mxGeometry relative="1" as="geometry">
            <Array as="points">
              <mxPoint x="400" y="460" />
              <mxPoint x="400" y="320" />
            </Array>
          </mxGeometry>
        </mxCell>
        <mxCell id="-EwXRi98x3nagNaAKc7C-7" style="edgeStyle=orthogonalEdgeStyle;rounded=0;orthogonalLoop=1;jettySize=auto;html=1;exitX=0.5;exitY=1;exitDx=0;exitDy=0;entryX=0.5;entryY=0;entryDx=0;entryDy=0;" edge="1" parent="1" source="-EwXRi98x3nagNaAKc7C-8" target="-EwXRi98x3nagNaAKc7C-14">
          <mxGeometry relative="1" as="geometry" />
        </mxCell>
        <mxCell id="-EwXRi98x3nagNaAKc7C-8" value="S == num" style="rhombus;whiteSpace=wrap;html=1;" vertex="1" parent="1">
          <mxGeometry x="200" y="420" width="80" height="80" as="geometry" />
        </mxCell>
        <mxCell id="-EwXRi98x3nagNaAKc7C-9" value="ya" style="text;html=1;strokeColor=none;fillColor=none;align=center;verticalAlign=middle;whiteSpace=wrap;rounded=0;" vertex="1" parent="1">
          <mxGeometry x="240" y="370" width="60" height="30" as="geometry" />
        </mxCell>
        <mxCell id="-EwXRi98x3nagNaAKc7C-10" value="tidak" style="text;html=1;strokeColor=none;fillColor=none;align=center;verticalAlign=middle;whiteSpace=wrap;rounded=0;" vertex="1" parent="1">
          <mxGeometry x="410" y="380" width="60" height="30" as="geometry" />
        </mxCell>
        <mxCell id="-EwXRi98x3nagNaAKc7C-11" style="edgeStyle=orthogonalEdgeStyle;rounded=0;orthogonalLoop=1;jettySize=auto;html=1;entryX=1;entryY=0.5;entryDx=0;entryDy=0;" edge="1" parent="1" source="-EwXRi98x3nagNaAKc7C-14" target="-EwXRi98x3nagNaAKc7C-15">
          <mxGeometry relative="1" as="geometry" />
        </mxCell>
        <mxCell id="-EwXRi98x3nagNaAKc7C-12" style="edgeStyle=orthogonalEdgeStyle;rounded=0;orthogonalLoop=1;jettySize=auto;html=1;exitX=1;exitY=0.5;exitDx=0;exitDy=0;entryX=1;entryY=0.25;entryDx=0;entryDy=0;" edge="1" parent="1" source="-EwXRi98x3nagNaAKc7C-14" target="-EwXRi98x3nagNaAKc7C-5">
          <mxGeometry relative="1" as="geometry">
            <mxPoint x="530" y="380" as="targetPoint" />
            <Array as="points">
              <mxPoint x="530" y="600" />
              <mxPoint x="530" y="306" />
            </Array>
          </mxGeometry>
        </mxCell>
        <mxCell id="-EwXRi98x3nagNaAKc7C-13" style="edgeStyle=orthogonalEdgeStyle;rounded=0;orthogonalLoop=1;jettySize=auto;html=1;entryX=0.5;entryY=0;entryDx=0;entryDy=0;" edge="1" parent="1" source="-EwXRi98x3nagNaAKc7C-14" target="-EwXRi98x3nagNaAKc7C-19">
          <mxGeometry relative="1" as="geometry" />
        </mxCell>
        <mxCell id="-EwXRi98x3nagNaAKc7C-14" value="S &amp;gt; 0" style="rhombus;whiteSpace=wrap;html=1;" vertex="1" parent="1">
          <mxGeometry x="200" y="560" width="80" height="80" as="geometry" />
        </mxCell>
        <mxCell id="-EwXRi98x3nagNaAKc7C-15" value="Luas" style="shape=process;whiteSpace=wrap;html=1;backgroundOutline=1;" vertex="1" parent="1">
          <mxGeometry x="30" y="645" width="120" height="60" as="geometry" />
        </mxCell>
        <mxCell id="-EwXRi98x3nagNaAKc7C-18" style="edgeStyle=orthogonalEdgeStyle;rounded=0;orthogonalLoop=1;jettySize=auto;html=1;exitX=0.5;exitY=1;exitDx=0;exitDy=0;" edge="1" parent="1" source="-EwXRi98x3nagNaAKc7C-19" target="-EwXRi98x3nagNaAKc7C-23">
          <mxGeometry relative="1" as="geometry" />
        </mxCell>
        <mxCell id="-EwXRi98x3nagNaAKc7C-19" value="" style="rounded=0;whiteSpace=wrap;html=1;" vertex="1" parent="1">
          <mxGeometry x="180" y="720" width="120" height="60" as="geometry" />
        </mxCell>
        <mxCell id="-EwXRi98x3nagNaAKc7C-20" value="ya" style="text;html=1;strokeColor=none;fillColor=none;align=center;verticalAlign=middle;whiteSpace=wrap;rounded=0;" vertex="1" parent="1">
          <mxGeometry x="240" y="660" width="60" height="30" as="geometry" />
        </mxCell>
        <mxCell id="-EwXRi98x3nagNaAKc7C-21" value="tidak" style="text;html=1;strokeColor=none;fillColor=none;align=center;verticalAlign=middle;whiteSpace=wrap;rounded=0;" vertex="1" parent="1">
          <mxGeometry x="290" y="570" width="60" height="30" as="geometry" />
        </mxCell>
        <mxCell id="-EwXRi98x3nagNaAKc7C-22" style="edgeStyle=orthogonalEdgeStyle;rounded=0;orthogonalLoop=1;jettySize=auto;html=1;entryX=0.5;entryY=0;entryDx=0;entryDy=0;" edge="1" parent="1" source="-EwXRi98x3nagNaAKc7C-23" target="-EwXRi98x3nagNaAKc7C-3">
          <mxGeometry relative="1" as="geometry" />
        </mxCell>
        <mxCell id="-EwXRi98x3nagNaAKc7C-23" value="Tampilkan Luas&amp;nbsp;" style="shape=parallelogram;perimeter=parallelogramPerimeter;whiteSpace=wrap;html=1;fixedSize=1;" vertex="1" parent="1">
          <mxGeometry x="175" y="870" width="130" height="60" as="geometry" />
        </mxCell>
        <mxCell id="-EwXRi98x3nagNaAKc7C-25" value="Luas = 6 x S x S&amp;nbsp;" style="text;html=1;strokeColor=none;fillColor=none;align=left;verticalAlign=middle;whiteSpace=wrap;rounded=0;" vertex="1" parent="1">
          <mxGeometry x="191" y="734" width="101" height="30" as="geometry" />
        </mxCell>
        <mxCell id="-EwXRi98x3nagNaAKc7C-26" value="Flowchart" style="text;html=1;strokeColor=none;fillColor=none;align=center;verticalAlign=middle;whiteSpace=wrap;rounded=0;fontSize=17;" vertex="1" parent="1">
          <mxGeometry x="50" y="130" width="60" height="30" as="geometry" />
        </mxCell>
        <mxCell id="4758XjGsw971yCoXjhTo-1" value="Luas Dadu" style="text;html=1;strokeColor=none;fillColor=none;align=center;verticalAlign=middle;whiteSpace=wrap;rounded=0;fontSize=17;" vertex="1" parent="1">
          <mxGeometry x="378" y="40" width="95" height="30" as="geometry" />
        </mxCell>
        <mxCell id="OhIa_T8rUFpsvEuNFmtd-1" value="Psudocode" style="text;html=1;strokeColor=none;fillColor=none;align=center;verticalAlign=middle;whiteSpace=wrap;rounded=0;fontSize=17;" vertex="1" parent="1">
          <mxGeometry x="600" y="130" width="60" height="30" as="geometry" />
        </mxCell>
        <mxCell id="OhIa_T8rUFpsvEuNFmtd-2" value="&lt;b style=&quot;font-weight:normal;&quot; id=&quot;docs-internal-guid-d74a9fb0-7fff-6e03-542d-ba2f8efc0322&quot;&gt;&lt;font style=&quot;font-size: 12px;&quot;&gt;&lt;p dir=&quot;ltr&quot; style=&quot;line-height: 1.38; margin-top: 0pt; margin-bottom: 0pt;&quot;&gt;&lt;span style=&quot;font-family: Roboto, sans-serif; color: rgb(89, 89, 89); background-color: rgb(255, 255, 255); font-weight: 400; font-style: normal; font-variant: normal; text-decoration: none; vertical-align: baseline;&quot;&gt;Hitung Luas Dadu;&lt;/span&gt;&lt;/p&gt;&lt;p dir=&quot;ltr&quot; style=&quot;line-height: 1.38; margin-top: 0pt; margin-bottom: 0pt;&quot;&gt;&lt;span style=&quot;font-family: Roboto, sans-serif; color: rgb(89, 89, 89); background-color: rgb(255, 255, 255); font-weight: 400; font-style: normal; font-variant: normal; text-decoration: none; vertical-align: baseline;&quot;&gt;Deklarasi:&lt;/span&gt;&lt;/p&gt;&lt;p dir=&quot;ltr&quot; style=&quot;line-height: 1.38; margin-top: 0pt; margin-bottom: 0pt;&quot;&gt;&lt;span style=&quot;font-family: Roboto, sans-serif; color: rgb(89, 89, 89); background-color: rgb(255, 255, 255); font-weight: 400; font-style: normal; font-variant: normal; text-decoration: none; vertical-align: baseline;&quot;&gt;&amp;nbsp; &amp;nbsp; &amp;nbsp; S, luas: num;&lt;/span&gt;&lt;/p&gt;&lt;p dir=&quot;ltr&quot; style=&quot;line-height: 1.38; margin-top: 0pt; margin-bottom: 0pt;&quot;&gt;&lt;span style=&quot;font-family: Roboto, sans-serif; color: rgb(89, 89, 89); background-color: rgb(255, 255, 255); font-weight: 400; font-style: normal; font-variant: normal; text-decoration: none; vertical-align: baseline;&quot;&gt;Begin&lt;/span&gt;&lt;/p&gt;&lt;p dir=&quot;ltr&quot; style=&quot;line-height: 1.38; margin-top: 0pt; margin-bottom: 0pt;&quot;&gt;&lt;span style=&quot;font-family: Roboto, sans-serif; color: rgb(89, 89, 89); background-color: rgb(255, 255, 255); font-weight: 400; font-style: normal; font-variant: normal; text-decoration: none; vertical-align: baseline;&quot;&gt;Input(&#39;S&#39;);&lt;/span&gt;&lt;/p&gt;&lt;p dir=&quot;ltr&quot; style=&quot;line-height: 1.38; margin-top: 0pt; margin-bottom: 0pt;&quot;&gt;&lt;span style=&quot;font-family: Roboto, sans-serif; color: rgb(89, 89, 89); background-color: rgb(255, 255, 255); font-weight: 400; font-style: normal; font-variant: normal; text-decoration: none; vertical-align: baseline;&quot;&gt;IF S &amp;gt; 0;&lt;/span&gt;&lt;/p&gt;&lt;p dir=&quot;ltr&quot; style=&quot;line-height: 1.38; margin-top: 0pt; margin-bottom: 0pt;&quot;&gt;&lt;span style=&quot;font-family: Roboto, sans-serif; color: rgb(89, 89, 89); background-color: rgb(255, 255, 255); font-weight: 400; font-style: normal; font-variant: normal; text-decoration: none; vertical-align: baseline;&quot;&gt;&lt;span style=&quot;white-space: pre;&quot;&gt;&#x9;&lt;/span&gt;luas = 6 x S x S;&lt;/span&gt;&lt;/p&gt;&lt;p dir=&quot;ltr&quot; style=&quot;line-height: 1.38; margin-top: 0pt; margin-bottom: 0pt;&quot;&gt;&lt;span style=&quot;font-family: Roboto, sans-serif; color: rgb(89, 89, 89); background-color: rgb(255, 255, 255); font-weight: 400; font-style: normal; font-variant: normal; text-decoration: none; vertical-align: baseline;&quot;&gt;ELSE Begin&lt;/span&gt;&lt;/p&gt;&lt;p dir=&quot;ltr&quot; style=&quot;line-height: 1.38; margin-top: 0pt; margin-bottom: 0pt;&quot;&gt;&lt;span style=&quot;font-family: Roboto, sans-serif; color: rgb(89, 89, 89); background-color: rgb(255, 255, 255); font-weight: 400; font-style: normal; font-variant: normal; text-decoration: none; vertical-align: baseline;&quot;&gt;&lt;span style=&quot;white-space: pre;&quot;&gt;&#x9;&lt;/span&gt;output(“Luas =”, luas);&lt;/span&gt;&lt;/p&gt;&lt;p dir=&quot;ltr&quot; style=&quot;line-height: 1.38; margin-top: 0pt; margin-bottom: 0pt;&quot;&gt;&lt;span style=&quot;font-family: Roboto, sans-serif; color: rgb(89, 89, 89); background-color: rgb(255, 255, 255); font-weight: 400; font-style: normal; font-variant: normal; text-decoration: none; vertical-align: baseline;&quot;&gt;End&lt;/span&gt;&lt;/p&gt;&lt;/font&gt;&lt;/b&gt;" style="text;whiteSpace=wrap;html=1;" vertex="1" parent="1">
          <mxGeometry x="550" y="170" width="210" height="180" as="geometry" />
        </mxCell>
        <mxCell id="OhIa_T8rUFpsvEuNFmtd-3" value="Algoritma" style="text;html=1;strokeColor=none;fillColor=none;align=center;verticalAlign=middle;whiteSpace=wrap;rounded=0;fontSize=17;" vertex="1" parent="1">
          <mxGeometry x="600" y="460" width="60" height="30" as="geometry" />
        </mxCell>
        <mxCell id="OhIa_T8rUFpsvEuNFmtd-4" value="&lt;div style=&quot;border-color: var(--border-color);&quot;&gt;1. Mulai&lt;br style=&quot;border-color: var(--border-color);&quot;&gt;2. Masukkan nilai sisi (S) Dadu.&lt;/div&gt;&lt;div style=&quot;border-color: var(--border-color);&quot;&gt;3. Cek jika nilai (S) adalah number&lt;br&gt;4. Cek jika nilai S &amp;gt; dari 0.&amp;nbsp;&lt;/div&gt;&lt;div style=&quot;border-color: var(--border-color);&quot;&gt;4. Jika &quot;YA&quot; maka hitung luas dadu Luas = 6 x S x S.&lt;br&gt;&lt;/div&gt;&lt;div style=&quot;border-color: var(--border-color);&quot;&gt;&lt;div style=&quot;border-color: var(--border-color);&quot;&gt;5. Jika &quot;TIDAK&quot; maka kembali ke atas Masukan nilai (S).&lt;br&gt;&lt;/div&gt;&lt;/div&gt;&lt;div style=&quot;border-color: var(--border-color);&quot;&gt;6. Tampilkan hasil luas sisi dadu (Luas).&lt;/div&gt;&lt;div style=&quot;border-color: var(--border-color);&quot;&gt;7. Selesai&lt;/div&gt;&lt;div style=&quot;border-color: var(--border-color);&quot;&gt;&lt;br style=&quot;border-color: var(--border-color); color: rgb(0, 0, 0); font-family: Helvetica; font-size: 12px; font-style: normal; font-variant-ligatures: normal; font-variant-caps: normal; font-weight: 400; letter-spacing: normal; orphans: 2; text-align: left; text-indent: 0px; text-transform: none; widows: 2; word-spacing: 0px; -webkit-text-stroke-width: 0px; background-color: rgb(251, 251, 251); text-decoration-thickness: initial; text-decoration-style: initial; text-decoration-color: initial;&quot;&gt;&lt;br&gt;&lt;br&gt;&lt;/div&gt;" style="text;whiteSpace=wrap;html=1;" vertex="1" parent="1">
          <mxGeometry x="550" y="500" width="290" height="170" as="geometry" />
        </mxCell>
      </root>
    </mxGraphModel>
  </diagram>
</mxfile>
